<?xml version="1.0" encoding="iso-8859-1"?>
<!-- Generator: Adobe Illustrator 19.0.0, SVG Export Plug-In . SVG Version: 6.00 Build 0)  -->
<svg version="1.1" id="Layer_1" xmlns="http://www.w3.org/2000/svg" xmlns:xlink="http://www.w3.org/1999/xlink" x="0px" y="0px"
	 viewBox="0 0 512.001 512.001" style="enable-background:new 0 0 512.001 512.001;" xml:space="preserve">
<path style="fill:#C6C6C6;" d="M447.56,364.37c-14.384-26.303-34.531-47.664-56.734-60.148
	c-15.315-8.611-30.568-12.499-44.669-11.583l-31.249-57.148l62.612-114.502c11.243-20.561,13.806-44.271,7.219-66.759
	c-6.588-22.488-21.541-41.067-42.103-52.309c-7.577-4.145-17.078-1.359-21.22,6.216l-65.415,119.627L190.586,8.138
	c-4.143-7.577-13.643-10.361-21.22-6.216c-20.561,11.243-35.514,29.821-42.103,52.309c-6.589,22.488-4.025,46.198,7.218,66.759
	l62.612,114.502l-31.249,57.148c-14.102-0.915-29.355,2.972-44.669,11.583c-22.204,12.484-42.352,33.845-56.734,60.148
	c-31.49,57.589-25.726,119.339,13.124,140.583c8.606,4.706,18.093,7.046,28.096,7.046c12.948-0.001,26.755-3.923,40.61-11.714
	c22.204-12.484,42.352-33.845,56.734-60.148l52.997-96.919l52.997,96.919c14.384,26.303,34.531,47.664,56.734,60.148
	c13.856,7.79,27.661,11.714,40.61,11.714c10,0,19.49-2.34,28.096-7.046C473.286,483.71,479.051,421.959,447.56,364.37z
	 M416.309,474.095c-2.896,1.583-6.146,2.08-9.931,2.08c-0.001,0-0.001,0-0.003,0c-17.747,0-45.505-17.62-64.224-51.852
	c-21.766-39.803-18.954-79.829-1.901-89.155c2.896-1.583,6.146-2.28,9.935-2.28c17.745,0,45.502,17.947,64.222,52.182
	C436.172,424.873,433.362,464.77,416.309,474.095z M95.692,474.407c-17.053-9.325-19.864-49.497,1.901-89.301
	c18.72-34.233,46.477-52.145,64.222-52.145c3.789,0,7.039,0.77,9.935,2.353c17.053,9.325,19.865,49.497-1.901,89.302
	c-18.72,34.233-46.477,52.145-64.221,52.145C101.838,476.76,98.589,475.991,95.692,474.407z"/>
<path style="fill:#E2E2E2;" d="M256,127.765L190.586,8.138c-4.143-7.577-13.643-10.361-21.22-6.216
	c-20.561,11.243-35.514,29.821-42.103,52.309c-6.589,22.488-4.025,46.198,7.218,66.759l62.612,114.502l-31.249,57.148
	c-14.102-0.915-29.355,2.972-44.669,11.583c-22.204,12.484-42.352,33.845-56.734,60.148
	c-31.49,57.589-25.726,119.339,13.124,140.583c8.606,4.706,18.093,7.046,28.096,7.046c12.948-0.001,26.755-3.923,40.61-11.714
	c22.204-12.484,42.352-33.845,56.734-60.148l52.997-96.919V127.765H256z M95.692,474.407c-17.053-9.325-19.864-49.497,1.901-89.301
	c18.72-34.233,46.477-52.145,64.222-52.145c3.789,0,7.039,0.77,9.935,2.353c17.053,9.325,19.865,49.497-1.901,89.302
	c-18.72,34.233-46.477,52.145-64.221,52.145C101.838,476.76,98.589,475.991,95.692,474.407z"/>
<path style="fill:#0D9EC0;" d="M390.825,304.223c-15.315-8.611-30.568-12.499-44.669-11.583l-31.249-57.148L256,283.333
	l-58.907-47.843l-31.249,57.148c-14.102-0.915-29.355,2.972-44.669,11.583C98.97,316.706,78.822,338.067,64.44,364.37
	C32.95,421.959,38.714,483.71,77.564,504.954C86.17,509.66,95.657,512,105.66,512c12.948-0.001,26.755-3.923,40.61-11.714
	c22.204-12.484,42.352-33.845,56.734-60.148l52.997-96.919l52.997,96.919c14.384,26.303,34.531,47.664,56.734,60.148
	c13.856,7.79,27.661,11.714,40.61,11.714c10,0,19.49-2.34,28.096-7.047c38.848-21.244,44.614-82.994,13.124-140.583
	C433.177,338.067,413.029,316.706,390.825,304.223z M165.178,422.062c-16.299,29.808-40.469,45.403-55.92,45.403
	c-3.299,0-6.129-0.67-8.652-2.05c-14.849-8.12-17.296-43.098,1.655-77.756c16.299-29.808,40.469-45.403,55.92-45.403
	c3.299,0,6.129,0.67,8.65,2.05C181.683,352.425,184.131,387.404,165.178,422.062z M343.703,344.305
	c2.521-1.379,5.351-2.05,8.65-2.05c15.452,0,39.621,15.595,55.92,45.403c18.952,34.658,16.505,69.636,1.655,77.756
	c-2.523,1.38-5.351,2.05-8.652,2.05c-15.451,0-39.62-15.597-55.92-45.403C326.406,387.404,328.853,352.425,343.703,344.305z"/>
<path style="fill:#51D2E1;" d="M256,283.335l-58.908-47.843l-31.249,57.148c-14.102-0.915-29.355,2.972-44.669,11.583
	c-22.204,12.484-42.352,33.845-56.734,60.148c-31.49,57.589-25.726,119.339,13.124,140.583c8.606,4.706,18.093,7.046,28.096,7.046
	c12.948-0.001,26.755-3.923,40.61-11.714c22.204-12.484,42.352-33.845,56.734-60.148l52.997-96.919v-59.886H256z M165.178,422.062
	c-16.299,29.808-40.469,45.403-55.92,45.403c-3.299,0-6.129-0.67-8.652-2.05c-14.849-8.12-17.296-43.098,1.655-77.756
	c16.299-29.808,40.469-45.403,55.92-45.403c3.299,0,6.129,0.67,8.65,2.05C181.683,352.425,184.131,387.404,165.178,422.062z"/>
<g>
</g>
<g>
</g>
<g>
</g>
<g>
</g>
<g>
</g>
<g>
</g>
<g>
</g>
<g>
</g>
<g>
</g>
<g>
</g>
<g>
</g>
<g>
</g>
<g>
</g>
<g>
</g>
<g>
</g>
</svg>
